<svg version="1.1" id="圖層_1" xmlns="http://www.w3.org/2000/svg" xmlns:xlink="http://www.w3.org/1999/xlink" x="0px" y="0px" viewBox="0 0 100 100" style="transform-origin: 50px 50px 0px;" xml:space="preserve"><g style="transform-origin: 50px 50px 0px;"><g style="transform-origin: 50px 50px 0px; transform: scale(1);"><g style="transform-origin: 50px 50px 0px;"><g><style type="text/css" class="ld ldt-fade-in" style="transform-origin: 50px 50px 0px; animation-duration: 3s; animation-delay: 0s; animation-direction: normal;">.st0{fill:#666}.st1{fill:#ebb885}.st2{fill:#e0e0e0}.st3{fill:#a0c8d7}.st4{fill:#66503a}.st5{fill:#abbd81}.st6{fill:#a0c8d7;stroke:#333;stroke-width:2;stroke-miterlimit:10}.st7{fill:#fff}.st8{fill:#66503a;stroke:#333;stroke-width:2;stroke-miterlimit:10}.st9{fill:#e0e0e0;stroke:#333;stroke-width:2;stroke-miterlimit:10}.st10{fill:#03aff3}.st11{fill:none;stroke:#333;stroke-width:5;stroke-linecap:round;stroke-miterlimit:10}.st12{fill:#8c6239}.st13{fill:#f5e6c8}.st14{fill:#333}.st15{fill:#f47e60}.st16{fill:#e15b64}.st17{fill:none;stroke:#000;stroke-width:6;stroke-miterlimit:10}.st18{fill:#4a3827}.st19{fill:none;stroke:#666;stroke-width:5.8262;stroke-linecap:round;stroke-miterlimit:10}.st20{fill:#77a4bd}.st21{fill:#f8b26a}.st22{fill:#849b87}.st23{fill:none}.st24{fill:#fff;stroke:#000;stroke-width:4;stroke-miterlimit:10}.st25{fill:none;stroke:#849b87;stroke-width:4;stroke-miterlimit:10}.st26{fill:none;stroke:#849b87;stroke-width:4.1718;stroke-miterlimit:10}.st27{fill:#c33737}.st28{fill:#ffdc6c;stroke:#fff;stroke-width:2.4393;stroke-miterlimit:10}.st29{stroke:#000;stroke-width:3;stroke-miterlimit:10}.st30{stroke:#000;stroke-width:3;stroke-linecap:round;stroke-linejoin:round;stroke-miterlimit:10}.st31{fill:#e0e0e0;stroke:#000;stroke-width:3;stroke-miterlimit:10}.st32{fill:#735441}.st33{fill:#c8dc96}.st34{fill:#f5e6c8;stroke:#c33737;stroke-width:6;stroke-miterlimit:10}.st35{fill:#f5e6c8;stroke:#000;stroke-width:4.2393;stroke-miterlimit:10}.st36{fill:#f5e169}.st37{fill:#ffdc6c}.st38{fill:none;stroke:#000;stroke-width:5.1342;stroke-miterlimit:10}.st39{fill:none;stroke:#000;stroke-width:4.908;stroke-miterlimit:10}.st40{fill:none;stroke:#000;stroke-width:5.0371;stroke-miterlimit:10}.st41{fill:none;stroke:#000;stroke-width:5.4333;stroke-miterlimit:10}.st42{fill:none;stroke:#333;stroke-width:4.308;stroke-miterlimit:10}.st43{fill:#f8b26a;stroke:#333;stroke-width:3;stroke-miterlimit:10}.st44{fill:#ff0;stroke:#333;stroke-width:3;stroke-miterlimit:10}.st45{fill:#f8b26a;stroke:#f47e60;stroke-width:2.326;stroke-miterlimit:10}.st46{fill:#333;stroke:#333;stroke-width:3;stroke-miterlimit:10}.st47{fill:#8a8a8a}.st48{fill:none;stroke:#333;stroke-width:3;stroke-linecap:round;stroke-linejoin:round;stroke-miterlimit:10}.st49{fill:none;stroke:#333;stroke-width:2;stroke-linecap:round;stroke-linejoin:round;stroke-miterlimit:10}.st50{fill:#983733}.st51{fill:#d50d01}.st52{fill:#81c927}.st53{fill:#c33737;stroke:#333;stroke-width:2;stroke-miterlimit:10}.st54{fill:#f5e6c8;stroke:#333;stroke-width:2;stroke-miterlimit:10}.st55{fill:#fff;stroke:#333;stroke-width:4;stroke-miterlimit:10}.st56{fill:none;stroke:#e15b64;stroke-width:3;stroke-miterlimit:10}.st57{fill:#fff;stroke:#333;stroke-width:6;stroke-linecap:round;stroke-miterlimit:10}</style><g class="ld ldt-fade-in" style="transform-origin: 50px 50px 0px; animation-duration: 3s; animation-delay: 0.09375s; animation-direction: normal;"><line class="st19" x1="22.643" y1="22.148" x2="29.869" y2="80.478" stroke="#552a86" style="stroke: #c72c2f;"></line></g><g class="ld ldt-fade-in" style="transform-origin: 50px 50px 0px; animation-duration: 3s; animation-delay: 0.1875s; animation-direction: normal;"><line class="st19" x1="22.643" y1="22.148" x2="62.503" y2="19.61" stroke="#552a86" style="stroke: #c72c2f;"></line></g><g class="ld ldt-fade-in" style="transform-origin: 50px 50px 0px; animation-duration: 3s; animation-delay: 0.28125s; animation-direction: normal;"><line class="st19" x1="62.503" y1="19.61" x2="82.057" y2="38.018" stroke="#552a86" style="stroke: #c72c2f;"></line></g><g class="ld ldt-fade-in" style="transform-origin: 50px 50px 0px; animation-duration: 3s; animation-delay: 0.375s; animation-direction: normal;"><line class="st19" x1="77.091" y1="73.913" x2="82.057" y2="38.018" stroke="#552a86" style="stroke: #c72c2f;"></line></g><g class="ld ldt-fade-in" style="transform-origin: 50px 50px 0px; animation-duration: 3s; animation-delay: 0.46875s; animation-direction: normal;"><line class="st19" x1="29.869" y1="80.478" x2="77.091" y2="73.913" stroke="#552a86" style="stroke: #c72c2f;"></line></g><g class="ld ldt-fade-in" style="transform-origin: 50px 50px 0px; animation-duration: 3s; animation-delay: 0.5625s; animation-direction: normal;"><line class="st19" x1="51.339" y1="51.242" x2="29.869" y2="80.478" stroke="#552a86" style="stroke: #c72c2f;"></line></g><g class="ld ldt-fade-in" style="transform-origin: 50px 50px 0px; animation-duration: 3s; animation-delay: 0.65625s; animation-direction: normal;"><line class="st19" x1="62.503" y1="19.61" x2="51.339" y2="51.242" stroke="#552a86" style="stroke: #c72c2f;"></line></g><g class="ld ldt-fade-in" style="transform-origin: 50px 50px 0px; animation-duration: 3s; animation-delay: 0.75s; animation-direction: normal;"><line class="st19" x1="22.643" y1="22.148" x2="51.339" y2="51.242" stroke="#552a86" style="stroke: #c72c2f;"></line></g><g class="ld ldt-fade-in" style="transform-origin: 50px 50px 0px; animation-duration: 3s; animation-delay: 0.84375s; animation-direction: normal;"><line class="st19" x1="82.057" y1="38.018" x2="51.339" y2="51.242" stroke="#552a86" style="stroke: #c72c2f;"></line></g><g class="ld ldt-fade-in" style="transform-origin: 50px 50px 0px; animation-duration: 3s; animation-delay: 0.9375s; animation-direction: normal;"><line class="st19" x1="77.091" y1="73.913" x2="51.339" y2="51.242" stroke="#552a86" style="stroke: #c72c2f;"></line></g><g class="ld ldt-fade-in" style="transform-origin: 50px 50px 0px; animation-duration: 3s; animation-delay: 1.03125s; animation-direction: normal;"><circle class="st14" cx="22.724" cy="22.067" r="12.067" fill="#6319b7" style="fill: rgb(170, 38, 41);"></circle></g><g class="ld ldt-fade-in" style="transform-origin: 50px 50px 0px; animation-duration: 3s; animation-delay: 1.125s; animation-direction: normal;"><circle class="st14" cx="62.584" cy="19.529" r="7.407" fill="#6319b7" style="fill: rgb(170, 38, 41);"></circle></g><g class="ld ldt-fade-in" style="transform-origin: 50px 50px 0px; animation-duration: 3s; animation-delay: 1.21875s; animation-direction: normal;"><circle class="st14" cx="82.138" cy="37.775" r="7.206" fill="#6319b7" style="fill: rgb(170, 38, 41);"></circle></g><g class="ld ldt-fade-in" style="transform-origin: 50px 50px 0px; animation-duration: 3s; animation-delay: 1.3125s; animation-direction: normal;"><circle class="st14" cx="77.172" cy="73.67" r="9.754" fill="#6319b7" style="fill: rgb(170, 38, 41);"></circle></g><g class="ld ldt-fade-in" style="transform-origin: 50px 50px 0px; animation-duration: 3s; animation-delay: 1.40625s; animation-direction: normal;"><circle class="st14" cx="29.869" cy="80.316" r="9.684" fill="#6319b7" style="fill: rgb(170, 38, 41);"></circle></g><g class="ld ldt-fade-in" style="transform-origin: 50px 50px 0px; animation-duration: 3s; animation-delay: 1.5s; animation-direction: normal;"><circle class="st14" cx="51.42" cy="50.999" r="14.504" fill="#6319b7" style="fill: rgb(170, 38, 41);"></circle></g><g class="ld ldt-fade-in" style="transform-origin: 50px 50px 0px; animation-duration: 3s; animation-delay: 1.59375s; animation-direction: normal;"><path class="st2" d="M53.839,50.304c-0.121-0.07-0.25-0.128-0.378-0.187c1.182-0.777,1.896-2.207,1.623-3.779 c-0.277-1.594-1.62-2.847-3.228-3.03c-2.251-0.256-4.159,1.498-4.159,3.698c0,1.302,0.669,2.446,1.681,3.111 c-0.128,0.06-0.257,0.117-0.378,0.187c-1.454,0.839-2.436,2.406-2.436,4.205v3.178c0,0.926,0.751,1.677,1.677,1.677h3.178h3.178 c0.926,0,1.677-0.751,1.677-1.677v-3.178C56.275,52.71,55.293,51.143,53.839,50.304z" fill="rgb(224, 224, 224)" style="fill: rgb(224, 224, 224);"></path></g><g class="ld ldt-fade-in" style="transform-origin: 50px 50px 0px; animation-duration: 3s; animation-delay: 1.6875s; animation-direction: normal;"><path class="st2" d="M24.81,20.664c-0.109-0.063-0.225-0.115-0.34-0.169c1.064-0.7,1.707-1.987,1.46-3.401 c-0.25-1.435-1.458-2.562-2.905-2.727c-2.026-0.23-3.743,1.348-3.743,3.328c0,1.171,0.602,2.201,1.513,2.8 c-0.115,0.054-0.231,0.106-0.34,0.169c-1.309,0.755-2.192,2.165-2.192,3.785v2.861c0,0.833,0.676,1.509,1.509,1.509h2.861h2.861 c0.833,0,1.509-0.676,1.509-1.509v-2.861C27.002,22.829,26.119,21.419,24.81,20.664z" fill="rgb(224, 224, 224)" style="fill: rgb(224, 224, 224);"></path></g><g class="ld ldt-fade-in" style="transform-origin: 50px 50px 0px; animation-duration: 3s; animation-delay: 1.78125s; animation-direction: normal;"><path class="st2" d="M31.543,79.603c-0.085-0.049-0.175-0.089-0.265-0.131c0.827-0.544,1.327-1.545,1.136-2.645 c-0.194-1.116-1.134-1.993-2.26-2.121c-1.576-0.179-2.911,1.049-2.911,2.588c0,0.911,0.468,1.712,1.177,2.178 c-0.089,0.042-0.18,0.082-0.265,0.131c-1.018,0.587-1.705,1.684-1.705,2.944v2.225c0,0.648,0.526,1.174,1.174,1.174h2.225h2.225 c0.648,0,1.174-0.525,1.174-1.174v-2.225C33.248,81.287,32.561,80.19,31.543,79.603z" fill="rgb(224, 224, 224)" style="fill: rgb(224, 224, 224);"></path></g><g class="ld ldt-fade-in" style="transform-origin: 50px 50px 0px; animation-duration: 3s; animation-delay: 1.875s; animation-direction: normal;"><path class="st2" d="M78.866,72.956c-0.085-0.049-0.175-0.089-0.265-0.131c0.827-0.544,1.327-1.545,1.136-2.645 c-0.194-1.116-1.134-1.993-2.26-2.121c-1.576-0.179-2.911,1.049-2.911,2.588c0,0.911,0.468,1.712,1.177,2.178 c-0.089,0.042-0.18,0.082-0.265,0.131c-1.018,0.587-1.705,1.684-1.705,2.944v2.225c0,0.648,0.525,1.174,1.174,1.174h2.225h2.225 c0.648,0,1.174-0.525,1.174-1.174V75.9C80.571,74.641,79.884,73.544,78.866,72.956z" fill="rgb(224, 224, 224)" style="fill: rgb(224, 224, 224);"></path></g><g class="ld ldt-fade-in" style="transform-origin: 50px 50px 0px; animation-duration: 3s; animation-delay: 1.96875s; animation-direction: normal;"><path class="st2" d="M83.344,36.947c-0.061-0.035-0.125-0.064-0.189-0.094c0.591-0.389,0.948-1.104,0.811-1.89 c-0.139-0.797-0.81-1.423-1.614-1.515c-1.126-0.128-2.079,0.749-2.079,1.849c0,0.651,0.335,1.223,0.84,1.555 c-0.064,0.03-0.128,0.059-0.189,0.094c-0.727,0.419-1.218,1.203-1.218,2.103v1.589c0,0.463,0.375,0.838,0.838,0.838h1.589h1.589 c0.463,0,0.838-0.375,0.838-0.838V39.05C84.562,38.15,84.071,37.366,83.344,36.947z" fill="rgb(224, 224, 224)" style="fill: rgb(224, 224, 224);"></path></g><g class="ld ldt-fade-in" style="transform-origin: 50px 50px 0px; animation-duration: 3s; animation-delay: 2.0625s; animation-direction: normal;"><path class="st2" d="M63.741,19.019c-0.061-0.035-0.125-0.064-0.189-0.094c0.591-0.389,0.948-1.104,0.811-1.89 c-0.139-0.797-0.81-1.423-1.614-1.515c-1.126-0.128-2.079,0.749-2.079,1.849c0,0.651,0.335,1.223,0.84,1.555 c-0.064,0.03-0.128,0.059-0.189,0.094c-0.727,0.419-1.218,1.203-1.218,2.103v1.589c0,0.463,0.375,0.838,0.838,0.838h1.589h1.589 c0.463,0,0.838-0.375,0.838-0.838v-1.589C64.959,20.222,64.468,19.438,63.741,19.019z" fill="rgb(224, 224, 224)" style="fill: rgb(224, 224, 224);"></path></g><metadata xmlns:d="https://loading.io/stock/" class="ld ldt-fade-in" style="transform-origin: 50px 50px 0px; animation-duration: 3s; animation-delay: 2.15625s; animation-direction: normal;">
<d:name class="ld ldt-fade-in" style="transform-origin: 50px 50px 0px; animation-duration: 3s; animation-delay: 2.25s; animation-direction: normal;">social</d:name>
<d:tags class="ld ldt-fade-in" style="transform-origin: 50px 50px 0px; animation-duration: 3s; animation-delay: 2.34375s; animation-direction: normal;">connection,link,relationship,network,society,social,business</d:tags>
<d:license class="ld ldt-fade-in" style="transform-origin: 50px 50px 0px; animation-duration: 3s; animation-delay: 2.4375s; animation-direction: normal;">rf</d:license>
<d:slug class="ld ldt-fade-in" style="transform-origin: 50px 50px 0px; animation-duration: 3s; animation-delay: 2.53125s; animation-direction: normal;">svp4in</d:slug>
</metadata></g></g></g></g><style type="text/css" class="ld ldt-fade-in" style="transform-origin: 50px 50px 0px; animation-duration: 3s; animation-delay: 2.625s; animation-direction: normal;">@keyframes ldt-fade-in{0%{opacity:0}100%{opacity:1}}@-webkit-keyframes ldt-fade-in{0%{opacity:0}100%{opacity:1}}.ldt-fade-in{opacity:0;-webkit-animation:ldt-fade-in 1s forwards;animation:ldt-fade-in 1s forwards;animation-timing-function:cubic-bezier(0,.3,.7,1)}
</style></svg>