<svg version="1.1" id="Layer_1" xmlns="http://www.w3.org/2000/svg" xmlns:xlink="http://www.w3.org/1999/xlink" x="0px" y="0px" viewBox="0 0 100 100" style="transform-origin: 50px 50px 0px;" xml:space="preserve"><g style="transform-origin: 50px 50px 0px;"><g style="transform-origin: 50px 50px 0px; transform: scale(1);"><g style="transform-origin: 50px 50px 0px; animation-duration: 1s; animation-delay: 0s; animation-direction: normal;" class=""><g><style type="text/css" class="ld ldt-throw-px-in" style="transform-origin: 50px 50px 0px; animation-duration: 3s; animation-delay: 0s; animation-direction: normal;">.st0{fill:#f4e6c8}.st1{fill:#333}.st2{fill:#e0e0e0}.st3{fill:#e15c64}.st4{fill:#c33837}.st5{fill:#d65a62}.st6{fill:none}.st7{fill:#f7b26a}.st8{fill:#f47e5f}.st9{opacity:.2;fill:#353035}.st10{fill:#666766}.st11{fill:#a0c8d7}.st12{fill:#77a4bd}.st13{fill:#acbd81}.st14{fill:#fff}.st15{fill:#849b87}.st16{fill:none;stroke:#e0e0e0;stroke-width:4;stroke-miterlimit:10}.st17{fill:none;stroke:#333;stroke-width:4;stroke-miterlimit:10}.st18{fill:#fff;stroke:#333;stroke-width:4;stroke-miterlimit:10}.st19{fill:none;stroke:#000;stroke-width:4;stroke-miterlimit:10}.st20{fill:#fff;stroke:#000;stroke-width:4;stroke-miterlimit:10}.st21{fill:#010101}.st22{fill:#a5a6a6}.st23{fill:#666}.st24{fill:#f3e4c7}.st25{fill:none;stroke:#fff;stroke-linecap:round;stroke-miterlimit:10}.st26{fill:#353035}.st27{fill:#b93a38}.st28{fill:#ea7c60}.st29{fill:#e0e0e0;stroke:#f7b26a;stroke-width:8;stroke-miterlimit:10}.st30{fill:none;stroke:#f7b26a;stroke-width:10;stroke-linecap:round;stroke-miterlimit:10}.st31{fill:none;stroke:#010101;stroke-width:8;stroke-miterlimit:10}.st32{fill:#f0af6b;stroke:#010101;stroke-width:8;stroke-miterlimit:10}.st33{fill:#829985}.st34{fill:#a8b980}.st35{fill:#f0af6b}.st36{fill:#4a3827}.st37{fill:#332518}.st38{fill:#e6e6e6}</style><g class="ld ldt-throw-px-in" style="transform-origin: 50px 50px 0px; animation-duration: 3s; animation-delay: 0.25s; animation-direction: normal;"><path d="M84.1,15.9C76.1,8,63.2,8,55.3,15.9L41.7,29.6c-1.5,1.5-2.6,3.1-3.6,4.8c0.9-0.2,1.9-0.4,2.8-0.6c1.9-0.2,3.7-0.3,5.6-0.1 l13.3-13.3c5.4-5.4,14.3-5.4,19.7,0c5.4,5.4,5.4,14.3,0,19.7L66.2,53.4l-0.3,0.3c-0.5,0.5-1.1,1-1.7,1.4c-0.7,0.5-1.4,0.9-2.1,1.3 c-1.4,0.7-2.9,1.1-4.4,1.3c-0.7,0.1-1.4,0.1-2.2,0.1c-0.7,0-1.4-0.1-2.1-0.2c-2.6-0.5-5.2-1.8-7.2-3.8s-3.3-4.6-3.8-7.2 c-0.1-0.7-0.2-1.4-0.2-2.1c-1.5,0.2-2.9,0.7-4.2,1.5c-0.7,0.4-1.3,0.9-2,1.4c0.1,0.8,0.3,1.6,0.6,2.4c0.9,3.1,2.6,6.1,5.1,8.5 s5.4,4.2,8.5,5.1c0.8,0.2,1.6,0.4,2.4,0.6c0.8,0.1,1.7,0.2,2.5,0.3c1.7,0.1,3.5-0.1,5.2-0.4c0.9-0.2,1.8-0.5,2.6-0.8 c0.9-0.3,1.8-0.7,2.6-1.1c1.7-0.9,3.4-2.1,4.8-3.6l13.6-13.6C92,36.8,92,23.9,84.1,15.9z" fill="#552a86" style="fill: #c72c2f;"></path></g><g class="ld ldt-throw-px-in" style="transform-origin: 50px 50px 0px; animation-duration: 3s; animation-delay: 0.5s; animation-direction: normal;"><path d="M61.9,65.6c-0.9,0.2-1.9,0.4-2.8,0.6c-1.9,0.2-3.7,0.3-5.6,0.1L40.2,79.5c-5.4,5.4-14.3,5.4-19.7,0 c-5.4-5.4-5.4-14.3,0-19.7l13.3-13.3l0.3-0.3c0.5-0.5,1.1-1,1.7-1.4c0.7-0.5,1.4-0.9,2.1-1.3c1.4-0.7,2.9-1.1,4.4-1.3 c0.7-0.1,1.4-0.1,2.2-0.1c0.7,0,1.4,0.1,2.1,0.2c2.6,0.5,5.2,1.8,7.2,3.8s3.3,4.6,3.8,7.2c0.1,0.7,0.2,1.4,0.2,2.1 c1.5-0.2,2.9-0.7,4.2-1.5c0.7-0.4,1.3-0.9,2-1.4c-0.1-0.8-0.3-1.6-0.6-2.4c-0.9-3.1-2.6-6.1-5.1-8.5s-5.4-4.2-8.5-5.1 c-0.8-0.2-1.6-0.4-2.4-0.6c-0.8-0.1-1.7-0.2-2.5-0.3c-1.7-0.1-3.5,0.1-5.2,0.4c-0.9,0.2-1.8,0.5-2.6,0.8c-0.9,0.3-1.8,0.7-2.6,1.1 c-1.7,0.9-3.4,2.1-4.8,3.6L15.9,55.3C8,63.2,8,76.1,15.9,84.1s20.8,7.9,28.8,0l13.6-13.6C59.8,69,61,67.4,61.9,65.6z" fill="#552a86" style="fill: #c72c2f;"></path></g><metadata xmlns:d="https://loading.io/stock/" class="ld ldt-throw-px-in" style="transform-origin: 50px 50px 0px; animation-duration: 3s; animation-delay: 0.75s; animation-direction: normal;">
<d:name class="ld ldt-throw-px-in" style="transform-origin: 50px 50px 0px; animation-duration: 3s; animation-delay: 1s; animation-direction: normal;">link</d:name>
<d:tags class="ld ldt-throw-px-in" style="transform-origin: 50px 50px 0px; animation-duration: 3s; animation-delay: 1.25s; animation-direction: normal;">chain,lock,circle,ring,shackle,url,link,web application</d:tags>
<d:license class="ld ldt-throw-px-in" style="transform-origin: 50px 50px 0px; animation-duration: 3s; animation-delay: 1.5s; animation-direction: normal;">rf</d:license>
<d:slug class="ld ldt-throw-px-in" style="transform-origin: 50px 50px 0px; animation-duration: 3s; animation-delay: 1.75s; animation-direction: normal;">lpzc7a</d:slug>
</metadata></g></g></g></g><style type="text/css" class="ld ldt-throw-px-in" style="transform-origin: 50px 50px 0px; animation-duration: 3s; animation-delay: 2s; animation-direction: normal;">@keyframes ldt-throw-px-in{0%,50%{animation-timing-function:cubic-bezier(0,.5,.5,1)}30%,70%{animation-timing-function:cubic-bezier(.5,0,1,.5)}0%{-webkit-transform:translate(0,100px);transform:translate(0,100px)}30%{-webkit-transform:translate(0,-34px);transform:translate(0,-34px)}50%{-webkit-transform:translate(0,0);transform:translate(0,0)}70%{-webkit-transform:translate(0,-13px);transform:translate(0,-13px)}80%{-webkit-transform:translate(0,0);transform:translate(0,0)}100%{-webkit-transform:translate(0,0);transform:translate(0,0)}}@-webkit-keyframes ldt-throw-px-in{0%,50%{animation-timing-function:cubic-bezier(0,.5,.5,1)}30%,70%{animation-timing-function:cubic-bezier(.5,0,1,.5)}0%{-webkit-transform:translate(0,100px);transform:translate(0,100px)}30%{-webkit-transform:translate(0,-34px);transform:translate(0,-34px)}50%{-webkit-transform:translate(0,0);transform:translate(0,0)}70%{-webkit-transform:translate(0,-13px);transform:translate(0,-13px)}80%{-webkit-transform:translate(0,0);transform:translate(0,0)}100%{-webkit-transform:translate(0,0);transform:translate(0,0)}}.ldt-throw-px-in{-webkit-animation:ldt-throw-px-in 1s linear forwards;animation:ldt-throw-px-in 1s linear forwards}
</style></svg>